<svg width="24" height="25" viewBox="0 0 24 25" fill="none" xmlns="http://www.w3.org/2000/svg">
<path d="M21.1064 16.8392L19.0594 13.0599V9.125C19.0594 5.19627 15.8631 2 11.9344 2C8.00564 2 4.80938 5.19627 4.80938 9.125V13.0599L2.76225 16.8391C2.66942 17.0105 2.62269 17.203 2.62666 17.3979C2.63062 17.5927 2.68514 17.7832 2.78487 17.9507C2.8846 18.1181 3.02612 18.2568 3.19556 18.3531C3.365 18.4494 3.55656 18.5 3.75145 18.5H7.82653C7.81517 18.6247 7.80942 18.7498 7.80933 18.875C7.80933 19.969 8.24393 21.0182 9.01751 21.7918C9.7911 22.5654 10.8403 23 11.9343 23C13.0283 23 14.0776 22.5654 14.8511 21.7918C15.6247 21.0182 16.0593 19.969 16.0593 18.875C16.0593 18.7484 16.0533 18.6236 16.0421 18.5H20.1172C20.3121 18.5 20.5036 18.4493 20.673 18.353C20.8424 18.2567 20.9839 18.1181 21.0837 17.9506C21.1834 17.7832 21.2379 17.5927 21.2418 17.3979C21.2458 17.2031 21.1991 17.0105 21.1063 16.8392H21.1064ZM14.5594 18.875C14.5597 19.2357 14.4856 19.5927 14.3418 19.9235C14.198 20.2543 13.9876 20.552 13.7236 20.7979C13.4597 21.0438 13.1479 21.2326 12.8077 21.3526C12.4675 21.4726 12.1062 21.5212 11.7464 21.4954C11.3866 21.4696 11.0359 21.3698 10.7164 21.2025C10.3968 21.0351 10.1152 20.8036 9.88908 20.5226C9.66296 20.2415 9.4972 19.9168 9.40215 19.5688C9.30709 19.2208 9.28478 18.857 9.33661 18.5H14.5321C14.5501 18.6242 14.5592 18.7495 14.5594 18.875ZM4.38103 17L6.30938 13.4401V9.125C6.30938 7.63316 6.90201 6.20242 7.9569 5.14752C9.01179 4.09263 10.4425 3.5 11.9344 3.5C13.4262 3.5 14.857 4.09263 15.9118 5.14752C16.9667 6.20242 17.5594 7.63316 17.5594 9.125V13.4401L19.4876 17H4.38103Z" fill="#757575"/>
</svg>
