<svg width="24" height="25" viewBox="0 0 24 25" fill="none" xmlns="http://www.w3.org/2000/svg">
<path d="M7.2 2.89999H16.8C17.4365 2.89999 18.047 3.15285 18.4971 3.60294C18.9471 4.05302 19.2 4.66347 19.2 5.29999V19.7C19.2 20.3365 18.9471 20.947 18.4971 21.3971C18.047 21.8471 17.4365 22.1 16.8 22.1H7.2C6.56348 22.1 5.95303 21.8471 5.50294 21.3971C5.05286 20.947 4.8 20.3365 4.8 19.7V5.29999C4.8 4.66347 5.05286 4.05302 5.50294 3.60294C5.95303 3.15285 6.56348 2.89999 7.2 2.89999ZM7.2 4.09999C6.88174 4.09999 6.57652 4.22642 6.35147 4.45147C6.12643 4.67651 6 4.98173 6 5.29999V19.7C6 20.0183 6.12643 20.3235 6.35147 20.5485C6.57652 20.7736 6.88174 20.9 7.2 20.9H16.8C17.1183 20.9 17.4235 20.7736 17.6485 20.5485C17.8736 20.3235 18 20.0183 18 19.7V5.29999C18 4.98173 17.8736 4.67651 17.6485 4.45147C17.4235 4.22642 17.1183 4.09999 16.8 4.09999H7.2ZM15.6 8.29999C15.6 8.44042 15.5508 8.57642 15.4609 8.68431C15.371 8.79219 15.2461 8.86512 15.108 8.89039L15 8.89999H9C8.85006 8.90027 8.70546 8.8444 8.59466 8.74338C8.48386 8.64237 8.4149 8.50353 8.40135 8.35421C8.3878 8.20489 8.43065 8.0559 8.52146 7.9366C8.61227 7.81729 8.74446 7.73631 8.892 7.70959L9 7.69999H15C15.1591 7.69999 15.3117 7.76321 15.4243 7.87573C15.5368 7.98825 15.6 8.14086 15.6 8.29999ZM15.6 12.5C15.6 12.6404 15.5508 12.7764 15.4609 12.8843C15.371 12.9922 15.2461 13.0651 15.108 13.0904L15 13.1H9C8.85006 13.1003 8.70546 13.0444 8.59466 12.9434C8.48386 12.8424 8.4149 12.7035 8.40135 12.5542C8.3878 12.4049 8.43065 12.2559 8.52146 12.1366C8.61227 12.0173 8.74446 11.9363 8.892 11.9096L9 11.9H15C15.1591 11.9 15.3117 11.9632 15.4243 12.0757C15.5368 12.1883 15.6 12.3409 15.6 12.5ZM15.6 16.7C15.6 16.8404 15.5508 16.9764 15.4609 17.0843C15.371 17.1922 15.2461 17.2651 15.108 17.2904L15 17.3H9C8.85006 17.3003 8.70546 17.2444 8.59466 17.1434C8.48386 17.0424 8.4149 16.9035 8.40135 16.7542C8.3878 16.6049 8.43065 16.4559 8.52146 16.3366C8.61227 16.2173 8.74446 16.1363 8.892 16.1096L9 16.1H15C15.1591 16.1 15.3117 16.1632 15.4243 16.2757C15.5368 16.3883 15.6 16.5409 15.6 16.7Z" fill="#757575"/>
</svg>
