<svg width="24" height="24" viewBox="0 0 24 24" fill="none" xmlns="http://www.w3.org/2000/svg">
<path d="M7.7216 3.2C7.93224 2.83516 8.2352 2.5322 8.60003 2.32155C8.96487 2.11091 9.37872 2.00001 9.8 2H15.2C16.3139 2 17.3822 2.4425 18.1698 3.23015C18.9575 4.0178 19.4 5.08609 19.4 6.2V18.2C19.3999 18.3085 19.3705 18.415 19.3147 18.5081C19.2589 18.6012 19.1789 18.6774 19.0832 18.7286C18.9875 18.7799 18.8797 18.8042 18.7713 18.799C18.6629 18.7938 18.558 18.7593 18.4676 18.6992L18.2 18.5216V6.2C18.2 5.40435 17.8839 4.64129 17.3213 4.07868C16.7587 3.51607 15.9956 3.2 15.2 3.2H7.7216ZM7.4 4.4C6.76348 4.4 6.15303 4.65286 5.70294 5.10294C5.25286 5.55303 5 6.16348 5 6.8V20.6C5.00006 20.7085 5.02955 20.815 5.08534 20.9081C5.14112 21.0012 5.22112 21.0774 5.3168 21.1286C5.41248 21.1799 5.52026 21.2042 5.62867 21.199C5.73708 21.1938 5.84205 21.1593 5.9324 21.0992L11 17.7212L16.0676 21.0992C16.158 21.1593 16.2629 21.1938 16.3713 21.199C16.4797 21.2042 16.5875 21.1799 16.6832 21.1286C16.7789 21.0774 16.8589 21.0012 16.9147 20.9081C16.9705 20.815 16.9999 20.7085 17 20.6V6.8C17 6.16348 16.7471 5.55303 16.2971 5.10294C15.847 4.65286 15.2365 4.4 14.6 4.4H7.4ZM6.2 6.8C6.2 6.48174 6.32643 6.17652 6.55147 5.95147C6.77652 5.72643 7.08174 5.6 7.4 5.6H14.6C14.9183 5.6 15.2235 5.72643 15.4485 5.95147C15.6736 6.17652 15.8 6.48174 15.8 6.8V19.4792L11.3324 16.5008C11.2339 16.4353 11.1183 16.4003 11 16.4003C10.8817 16.4003 10.7661 16.4353 10.6676 16.5008L6.2 19.4792V6.8Z" fill="#757575"/>
</svg>
